<svg id="Layer_2" data-name="Layer 2" xmlns="http://www.w3.org/2000/svg" viewBox="0 0 575.33 438.74"><defs><style>.cls-1{fill:none;stroke:#2e3740;stroke-miterlimit:10;stroke-width:4px;}.cls-2{fill:#2e3740;}.cls-3{fill:#231f20;}.cls-4{fill:#fff200;}.cls-5{fill:#ed1c24;}.cls-6{fill:#00aeef;}.cls-7{fill:#39b54a;}.cls-8{fill:#fff;}</style></defs><title>dg1</title><path class="cls-1" d="M29.46,144V454.93H156.05s83.87-1.58,83.87-60.13V231s4-89-89-89S29.46,144,29.46,144Z" transform="translate(-27.46 -75)"/><rect class="cls-1" x="78.75" y="124.37" width="45.1" height="183.56" rx="22.55"/><path class="cls-1" d="M338.43,354.65s-17.52-7.07-38.11-35c-21.69-29.44-27.46-71.11-29-91.17a302.89,302.89,0,0,0-7.52-48.39C253.79,138.66,231.4,77,186.91,77c-67,0-55.58,65-55.58,65s6.4,42.07-2.57,57.36" transform="translate(-27.46 -75)"/><path class="cls-1" d="M30.78,261.62S82,243.68,104.63,243.68" transform="translate(-27.46 -75)"/><path class="cls-1" d="M152.63,243.68s61.71,8.44,86,19.52" transform="translate(-27.46 -75)"/><path class="cls-2" d="M337.24,284.3v81.23s-31.12,16.88-31.12,51.16c0,.72,0,1.42,0,2.13a77.36,77.36,0,0,0,48.24,69.82,180.23,180.23,0,0,0,46.69,11.92c39.39,4.78,88.09,10.15,109.64,12.5a107.52,107.52,0,0,0,41.51-3.39c19.77-5.7,41.9-18.48,41.9-47.09v-77A52.71,52.71,0,0,0,586.6,358c-7.38-12.07-21.93-24.66-50.5-24.66-17.69,0-30.28,1.92-39.22,4.52C477,343.65,476,371.42,495.25,379l.76.29c25.32,9.5,30.07,10,30.07,10L524,432.52c-5.28,5.8-79.65-59.61-79.65-59.61V291.39a35.83,35.83,0,0,1,13.52-28.3c.4-.32.82-.63,1.25-.95,13.71-10,46.42-34.28,46.42-34.28L515,230s45.36,52.22,77.54,24.26c25.13-21.83-2.19-58.8-15.36-73.93-3.42-3.93-6.77-7.92-10.11-11.92-8.55-10.24-31.73-32-72.64-29.14-39,2.71-95.27,8.8-122.6,11.87a78.15,78.15,0,0,0-48.67,24.15c-9.33,10.08-16.93,23.77-16.51,41.52C307.7,261.62,337.24,284.3,337.24,284.3Z" transform="translate(-27.46 -75)"/><circle class="cls-3" cx="354.09" cy="349.08" r="59.08"/><circle class="cls-3" cx="352.51" cy="148.64" r="59.08"/><ellipse class="cls-4" cx="323.23" cy="147.05" rx="18.2" ry="18.47"/><ellipse class="cls-5" cx="353.03" cy="119.63" rx="18.2" ry="18.47"/><ellipse class="cls-6" cx="380.99" cy="148.64" rx="18.2" ry="18.47"/><ellipse class="cls-7" cx="352.51" cy="176.07" rx="18.2" ry="18.47"/><rect class="cls-8" x="343.54" y="314.79" width="17.93" height="65.41" rx="8.97"/><rect class="cls-8" x="372.58" y="390.85" width="17.93" height="65.41" rx="8.97" transform="translate(777.64 -33) rotate(90)"/><path class="cls-3" d="M416.36,306.45s-4.22-12.66,3.17-13.19,9,12.66,9,12.66,2.64,12.66-5.8,12.13S416.36,306.45,416.36,306.45Z" transform="translate(-27.46 -75)"/><path class="cls-3" d="M416.36,341.26s-.52-10.55,5.8-10,6.86,9,6.86,9,1.06,12.66-6.86,12.13S416.36,341.26,416.36,341.26Z" transform="translate(-27.46 -75)"/></svg>